<svg preserveAspectRatio="none" overflow="visible" style="display: block;" width="88.875" height="143.862" viewBox="0 0 88.875 143.862" fill="none" xmlns="http://www.w3.org/2000/svg">
<path id="&#60;Path&#62;" d="M34.0504 143.862C42.747 143.862 57.0869 128.841 69.1095 107.004C75.7887 94.8994 82.4951 80.2869 87.7567 65.0473C91.2463 55.0694 86.8025 22.7093 71.1268 0C70.5089 1.5812 69.9637 3.23512 69.4911 4.96172C72.2446 15.2941 72.1083 28.5434 67.6373 44.7643C65.8925 51.1437 54.7423 80.7776 45.1188 98.4707V98.498C44.4645 99.7157 43.7738 100.933 43.0468 102.151C42.2472 103.514 41.4021 104.85 40.5115 106.159C31.3242 119.926 17.8294 128.786 0 108.83C11.8045 129.686 25.5991 143.862 34.0504 143.862Z" fill="url(#paint0_linear_0_333)"/>
<defs>
<linearGradient id="paint0_linear_0_333" x1="-71.972" y1="143.848" x2="-71.972" y2="-0.0081801" gradientUnits="userSpaceOnUse">
<stop offset="0.029" stop-color="#73378B"/>
<stop offset="0.371" stop-color="#976EAD"/>
<stop offset="0.931" stop-color="#BBA5CF"/>
</linearGradient>
</defs>
</svg>
